<?xml version="1.0" encoding="UTF-8"?>
<svg class="logo-svg" xmlns="http://www.w3.org/2000/svg"
                   width="216" height="68" viewBox="455 400 390 122"
                   role="img" aria-label="Orquídea">
                <title>Orquídea</title>
                <g fill="#002740">
                  <path d="M553.81,453.74c0-13.8,9.64-23.91,22.85-23.91s22.85,10.1,22.85,23.91-9.64,23.91-22.85,23.91-22.85-10.1-22.85-23.91ZM591.19,453.74c0-9.64-5.88-16.25-14.53-16.25s-14.53,6.54-14.53,16.25,5.81,16.25,14.53,16.25,14.53-6.6,14.53-16.25Z"/>
                  <path d="M604.92,443.7h7.6c0,2.44-.2,4.42-.79,8.12l.33.07c2.84-6.67,6.34-8.85,13.67-8.19v7.13c-9.58-.79-13.14,2.84-13.14,12.35v13.67h-7.66v-33.15Z"/>
                  <path d="M660,443.7v46.23h-7.66c-.13-13.27,0-16.05,1.19-20.67l-.33-.13c-3.1,5.81-7.2,8.52-12.81,8.52-8.78,0-14.86-6.87-14.86-17.37s6.08-17.37,14.86-17.37c5.55,0,9.44,2.58,12.75,8.52l.33-.13c-.86-2.84-1.19-4.89-1.12-7.6h7.66ZM633.19,460.28c0,6.34,3.83,10.5,9.64,10.5s9.64-4.16,9.64-10.5-3.83-10.5-9.64-10.5-9.64,4.16-9.64,10.5Z"/>
                  <path d="M689.19,470.05l-.33-.13c-2.51,5.22-5.94,7.6-10.96,7.6-7.6,0-11.76-5.61-11.76-15.72v-18.1h7.66v17.17c0,6.47,2.44,9.77,7.26,9.77s7.26-3.3,7.26-9.77v-17.17h7.66v33.15h-7.53c0-3.1.2-4.82.73-6.8Z"/>
                  <polygon points="706.34 430.62 714.81 430.62 707.8 439.74 702.86 439.74 706.34 430.62"/>
                  <rect x="702.86" y="443.7" width="7.66" height="33.15"/>
                  <path d="M743.54,469.26l-.33-.13c-3.3,5.94-7.2,8.52-12.75,8.52-8.78,0-14.86-6.8-14.86-17.37s6.08-17.37,14.86-17.37c5.61,0,9.71,2.71,12.81,8.52l.33-.13c-1.19-4.62-1.32-7.4-1.19-20.67h7.66v46.23h-7.66c-.07-2.71.26-4.75,1.12-7.6ZM742.55,460.28c0-6.34-3.83-10.5-9.64-10.5s-9.64,4.16-9.64,10.5,3.83,10.5,9.64,10.5,9.64-4.16,9.64-10.5Z"/>
                  <path d="M754.96,460.28c0-10.17,6.93-17.37,16.84-17.37,10.96,0,18.16,8.85,16.64,20.28h-25.95c.92,4.95,4.36,7.99,9.25,7.99,3.7,0,6.6-1.65,8.32-4.56h7.73c-2.38,6.8-8.45,11.03-16.05,11.03-9.84,0-16.77-7.2-16.77-17.37ZM781.18,457.5c-.79-5.02-4.36-8.12-9.31-8.12s-8.52,3.17-9.38,8.12h18.69Z"/>
                  <path d="M791.35,468.07c0-5.42,3.7-9.38,9.64-10.04l9.97-1.12c2.44-.26,3.83-1.72,3.83-3.63,0-2.44-2.44-4.03-6.54-4.03s-7,1.72-7.66,5.02h-7.6c1.12-7.13,6.93-11.36,15.12-11.36,9.31,0,14.46,5.09,14.46,14.2v10.3c0,2.25.86,2.91,4.29,2.58v6.87c-7.46.79-10.63-1.85-9.84-8.19l-.33-.13c-2.64,6.07-7,9.05-13.74,9.05-7.33,0-11.62-3.57-11.62-9.51ZM815.52,460.21l-.2-.13c-2.64,1.78-4.69,2.51-8.19,2.97l-3.83.46c-2.71.33-4.36,1.78-4.36,4.1s1.72,3.7,4.95,3.7c5.61,0,10.04-4.23,11.62-11.09Z"/>
                </g>
                <path fill="#8540b2" d="M526.16,465.91c.6,1.32,1.02,2.68,1.26,4.11,1.5-.1,2.96-.42,4.36-.87,1.01-.35,1.99-.77,2.93-1.29,1.46-.77,2.79-1.74,3.97-2.86.84-.77,1.61-1.64,2.27-2.55,2.34-3.13,3.73-7.04,3.73-11.26,0-8.93-6.17-16.43-14.47-18.38-.98-.24-1.95-.42-2.93-.49-.21-.98-.52-1.92-.94-2.82-.91-2.2-2.27-4.26-4.05-6.04l-13.39-13.39-13.39,13.39c-1.78,1.78-3.14,3.84-4.05,6.04-.42.9-.73,1.84-.94,2.82-.98.07-1.95.25-2.93.49-8.3,1.95-14.47,9.45-14.47,18.38,0,4.22,1.39,8.13,3.73,11.26.66.91,1.43,1.78,2.27,2.55,1.18,1.12,2.51,2.09,3.97,2.86.94.52,1.92.94,2.93,1.29,1.4.45,2.86.77,4.36.87.24-1.43.66-2.79,1.26-4.11-1.85-.04-3.63-.42-5.27-1.15-.87-.35-1.71-.77-2.48-1.33.32-.91.77-1.74,1.29-2.51,2.13-3.1,5.72-5.13,9.77-5.13h8.89l-6.27,6.28c-.35.35-.67.7-.98,1.08-.73.87-1.36,1.81-1.88,2.79-.7,1.33-1.23,2.72-1.5,4.19-.21.9-.32,1.85-.32,2.79-.03.17-.03.35-.03.52,0,1.05.1,2.09.31,3.1.18,1.02.49,1.99.87,2.93-1.11-.07-2.19-.31-3.21-.69-3.41-1.26-6.1-4.05-7.22-7.57-1.67-.7-3.24-1.61-4.67-2.72.38,7.84,6.42,14.16,14.09,15.1.63.07,1.26.1,1.92.1.52,0,1.05-.03,1.57-.07.31.39.66.77,1.05,1.15.45.46.94.88,1.43,1.26,2.89,2.3,6.38,3.45,9.9,3.45s7.01-1.15,9.9-3.45c.49-.38.98-.8,1.43-1.26.39-.38.74-.76,1.05-1.15.52.04,1.05.07,1.57.07.66,0,1.29-.03,1.92-.1,7.67-.94,13.71-7.26,14.09-15.1-1.43,1.11-3,2.02-4.67,2.72-1.12,3.52-3.81,6.31-7.22,7.57-1.02.38-2.1.62-3.21.69.38-.94.69-1.91.87-2.93.21-1.01.31-2.05.31-3.1,0-.17,0-.35-.03-.52,0-.94-.11-1.89-.32-2.79-.27-1.47-.8-2.86-1.5-4.19-.52-.98-1.15-1.92-1.88-2.79-.31-.38-.63-.73-.98-1.08l-6.27-6.28h8.89c4.05,0,7.64,2.03,9.77,5.13.52.77.97,1.6,1.29,2.51-.77.56-1.61.98-2.48,1.33-1.64.73-3.42,1.11-5.27,1.15ZM495.96,429.84c.63-1.22,1.5-2.37,2.51-3.41l10.43-10.43,10.43,10.43c1.01,1.04,1.88,2.19,2.51,3.41.49.84.87,1.75,1.12,2.66-.91.1-1.82.31-2.73.55-3.9,1.19-7.28,3.63-9.66,6.84-.66.84-1.22,1.74-1.67,2.72-.45-.98-1.01-1.88-1.67-2.72-2.38-3.21-5.76-5.65-9.66-6.84-.91-.24-1.82-.45-2.73-.55.25-.91.63-1.82,1.12-2.66ZM500.29,448.82c-.63-.46-1.26-.98-1.82-1.54-2.2-2.23-3.56-4.95-4.08-7.81-.77-.17-1.53-.24-2.34-.24-.66,0-1.29.03-1.91.17.45,3.38,1.81,6.66,4.11,9.45.39.49.8.94,1.26,1.4.49.49,1.01.94,1.53,1.36h-2.09c-.63,0-1.26.03-1.88.1-4.43.53-8.3,2.83-10.85,6.21-.63.8-1.15,1.64-1.6,2.55-.7-.81-1.26-1.71-1.71-2.65-1.05-1.99-1.61-4.22-1.61-6.63,0-6.42,4.15-11.93,9.94-13.92.87-.31,1.78-.55,2.72-.66.7-.14,1.4-.17,2.09-.17s1.4.03,2.1.17c.97.11,1.92.35,2.82.7,3.56,1.22,6.45,3.8,8.16,7.08.7,1.29,1.19,2.72,1.43,4.22.04.07.04.14.04.21.03.07.03.14.03.24.14.7.18,1.4.18,2.13v.24c-.7-.07-1.43-.24-2.1-.42h-.03c-.21-.07-.45-.13-.63-.24h-.07c-1.32-.45-2.54-1.12-3.69-1.95ZM517.27,465.03c.28.28.56.6.84.91.45.54.84,1.12,1.18,1.74,1.45,2.68,1.73,5.74,1.08,8.69-.2.91-.55,1.78-1.01,2.62-.52,1.01-1.22,1.98-2.09,2.82-.21.21-.42.42-.66.63-.84.73-1.78,1.32-2.76,1.74-1.56.74-3.26,1.1-4.95,1.1s-3.39-.36-4.95-1.1c-.98-.42-1.92-1.01-2.76-1.74-.24-.21-.45-.42-.66-.63-.87-.84-1.57-1.81-2.09-2.82-.46-.84-.81-1.71-1.01-2.62-.65-2.95-.37-6.01,1.08-8.69.34-.62.73-1.2,1.18-1.74.28-.31.56-.63.84-.91l3.49-3.48,2.79-2.83v8.93c0,.84-.11,1.67-.25,2.48-.12.7-.38,1.41-.66,2.06-1.01,2.34-2.68,4.36-4.89,5.66-.01.01-.02.01-.03.02.39.73.91,1.39,1.5,1.99.42.42.91.8,1.4,1.15,1.25-.87,2.37-1.85,3.28-3,.68-.76,1.23-1.58,1.74-2.43.51.85,1.06,1.67,1.74,2.43.91,1.15,2.03,2.13,3.28,3,.49-.35.98-.73,1.4-1.15.59-.6,1.11-1.26,1.5-1.99-.01-.01-.02-.01-.03-.02-2.21-1.3-3.88-3.32-4.89-5.66-.28-.65-.54-1.36-.66-2.06-.14-.81-.25-1.64-.25-2.48v-8.93l2.79,2.83,3.49,3.48ZM524.73,451.71c-.62-.07-1.25-.1-1.88-.1h-2.09c.52-.42,1.04-.87,1.53-1.36.46-.46.87-.91,1.26-1.4,2.3-2.79,3.66-6.07,4.11-9.45-.62-.14-1.25-.17-1.91-.17-.81,0-1.57.07-2.34.24-.52,2.86-1.88,5.58-4.08,7.81-.56.56-1.19,1.08-1.82,1.54-1.15.83-2.37,1.5-3.69,1.95h-.07c-.18.11-.42.17-.63.24h-.03c-.67.18-1.4.35-2.1.42v-.24c0-.73.04-1.43.18-2.13,0-.1,0-.17.03-.24,0-.07,0-.14.04-.21.24-1.5.73-2.93,1.43-4.22,1.71-3.28,4.6-5.86,8.16-7.08.9-.35,1.85-.59,2.82-.7.7-.14,1.4-.17,2.1-.17s1.39.03,2.09.17c.94.11,1.85.35,2.72.66,5.79,1.99,9.94,7.5,9.94,13.92,0,2.41-.56,4.64-1.61,6.63-.45.94-1.01,1.84-1.71,2.65-.45-.91-.97-1.75-1.6-2.55-2.55-3.38-6.42-5.68-10.85-6.21Z"/>
              
              <text x="827" y="510" font-family="'Helvetica Neue',Helvetica,Arial,sans-serif" font-size="20" font-weight="300" fill="#002740" text-anchor="end" letter-spacing="1.5">Honduras</text>
              </svg>